<svg width="94" height="16" viewBox="0 0 94 16" fill="none" xmlns="http://www.w3.org/2000/svg">
<path d="M7.61538 15.9649C5.52923 15.9649 3.73846 15.2326 2.24308 13.768C0.747693 12.3049 0 10.5295 0 8.44184C0 6.35568 0.747693 4.57415 2.24308 3.09722C3.73846 1.6203 5.52923 0.881836 7.61538 0.881836H12.0646C12.0646 1.71107 11.7723 2.41876 11.1877 3.00184C10.6031 3.58646 9.89692 3.87877 9.06615 3.87877H7.61384C6.36923 3.87877 5.31077 4.32799 4.43692 5.22645C3.56308 6.12491 3.12615 7.19568 3.12615 8.4403C3.12615 9.68491 3.56308 10.7495 4.43692 11.6357C5.31077 12.5218 6.36923 12.9649 7.61384 12.9649H9.06615C9.89538 12.9649 10.6031 13.2572 11.1877 13.8418C11.7723 14.4264 12.0646 15.1326 12.0646 15.9634H7.61538V15.9649Z" fill="url(#paint0_linear_0_367)"/>
<path d="M20.3015 0.883301C22.3877 0.883301 24.1815 1.62177 25.6831 3.09869C27.1846 4.57561 27.9354 6.35715 27.9354 8.4433C27.9354 10.5295 27.1846 12.3048 25.6831 13.7695C24.1815 15.2341 22.3877 15.9664 20.3015 15.9664C18.2154 15.9664 16.4246 15.2341 14.9292 13.7695C13.4339 12.3064 12.6862 10.531 12.6862 8.4433C12.6862 6.35715 13.4339 4.57561 14.9292 3.09869C16.4246 1.62177 18.2154 0.883301 20.3015 0.883301ZM20.3015 3.88022C19.0569 3.88022 18.0046 4.32945 17.1446 5.22791C16.2831 6.12638 15.8538 7.19715 15.8538 8.44176C15.8538 9.68638 16.2846 10.751 17.1446 11.6371C18.0062 12.5233 19.0585 12.9664 20.3015 12.9664C21.5462 12.9664 22.6015 12.5233 23.4692 11.6371C24.3369 10.751 24.7708 9.68638 24.7708 8.44176C24.7708 7.19715 24.3369 6.12638 23.4692 5.22791C22.6015 4.32945 21.5462 3.88022 20.3015 3.88022Z" fill="url(#paint1_linear_0_367)"/>
<path d="M46.9769 15.9648C46.1092 15.9648 45.3646 15.6541 44.7431 15.031C44.1215 14.4095 43.8092 13.6648 43.8092 12.7971V0.883301C44.6769 0.883301 45.4215 1.19407 46.0431 1.81561C46.6646 2.43715 46.9769 3.18177 46.9769 4.04946V15.9648Z" fill="url(#paint2_linear_0_367)"/>
<path d="M60.6246 8.44323C60.6246 7.21246 60.1908 6.14323 59.3231 5.23861C58.4554 4.33399 57.4061 3.88169 56.1754 3.88169C54.9308 3.88169 53.8754 4.33092 53.0077 5.22938C52.14 6.12784 51.7061 7.19861 51.7061 8.44323V12.7986C51.7061 13.6663 51.3954 14.4109 50.7723 15.0325C50.1508 15.654 49.4061 15.9663 48.5385 15.9663V8.44477C48.5385 6.35861 49.2861 4.57708 50.7815 3.10015C52.2769 1.62323 54.0738 0.884766 56.1723 0.884766C58.2585 0.884766 60.0492 1.62323 61.5446 3.10015C63.04 4.57708 63.7877 6.35861 63.7877 8.44477V15.9663C62.92 15.9663 62.1754 15.6555 61.5538 15.0325C60.9323 14.4109 60.6215 13.6663 60.6215 12.7986V8.44323H60.6246Z" fill="url(#paint3_linear_0_367)"/>
<path d="M77.3461 4.05092C77.3461 3.18323 77.6569 2.43861 78.2784 1.81707C78.9 1.19553 79.6446 0.884766 80.5123 0.884766V8.40631C80.5123 10.4925 79.7646 12.274 78.2692 13.7509C76.7738 15.2278 74.9831 15.9663 72.8969 15.9663C70.7984 15.9663 69 15.2278 67.5061 13.7509C66.0107 12.274 65.2631 10.4925 65.2631 8.40631V0.884766C66.1308 0.884766 66.8754 1.19553 67.4969 1.81707C68.1184 2.43861 68.4307 3.18323 68.4307 4.05092V8.40631C68.4307 9.65092 68.8646 10.7217 69.7323 11.6202C70.6 12.5186 71.6554 12.9678 72.9 12.9678C74.1307 12.9678 75.1815 12.5155 76.0477 11.6109C76.9154 10.7063 77.3492 9.63861 77.3492 8.40631V4.05092H77.3461Z" fill="url(#paint4_linear_0_367)"/>
<path d="M35.9046 15.98C34.5123 15.9615 33.1692 15.6646 31.8754 15.0877C30.6523 14.5415 29.8815 13.3077 29.8815 11.9677V11.2646C32.0184 12.8292 34.0615 13.6123 36.0123 13.6123C36.9015 13.6123 37.6 13.4354 38.1092 13.0831C38.6184 12.7308 38.8723 12.2861 38.8723 11.7508C38.8723 11.1723 38.5384 10.6892 37.8723 10.3015C37.2061 9.91384 36.1769 9.55845 34.7846 9.23384C33.0631 8.82461 31.8046 8.2923 31.0092 7.63692C30.2138 6.98153 29.8154 6.1323 29.8154 5.08768C29.8154 3.81845 30.3384 2.7923 31.3861 2.01076C32.4323 1.22768 33.7308 0.836914 35.28 0.836914C36.3861 0.836914 37.4723 1.00768 38.5369 1.34768C39.9554 1.80153 40.8954 3.15384 40.8954 4.64307V5.0246C40.1215 4.48922 39.2246 4.03845 38.2061 3.67076C37.1877 3.3046 36.2123 3.12153 35.28 3.12153C34.4477 3.12153 33.7523 3.30153 33.1938 3.66153C32.6338 4.02153 32.3554 4.48922 32.3554 5.06768C32.3554 5.6323 32.6815 6.06615 33.3338 6.36768C33.9861 6.67076 35.0661 6.9923 36.5708 7.33076C39.7969 8.07846 41.4108 9.55076 41.4108 11.7508C41.4108 13.0908 40.88 14.1369 39.8184 14.8923C38.7584 15.6461 37.4538 16.0092 35.9046 15.98Z" fill="url(#paint5_linear_0_367)"/>
<path d="M88.1493 15.9801C86.9216 15.9631 85.7339 15.7201 84.5846 15.2508C83.1662 14.6708 82.2539 13.2724 82.2539 11.7401V11.2631C84.3446 12.8278 86.3446 13.6108 88.2539 13.6108C89.1246 13.6108 89.8077 13.4355 90.3062 13.0816C90.8046 12.7293 91.0539 12.2847 91.0539 11.7493C91.0539 11.1708 90.7277 10.6878 90.0754 10.3001C89.4231 9.91238 88.4154 9.55699 87.0539 9.23238C85.3693 8.82314 84.1385 8.29084 83.3585 7.63545C82.58 6.98007 82.1908 6.13083 82.1908 5.08622C82.1908 3.81699 82.7031 2.79083 83.7277 2.0093C84.7523 1.22622 86.0231 0.835449 87.5385 0.835449C88.5785 0.835449 89.6 0.992373 90.6016 1.30776C92.0431 1.76007 93.0323 3.08622 93.0323 4.59699V5.02468C92.2739 4.48929 91.3969 4.03853 90.4 3.67083C89.4031 3.30468 88.4493 3.1216 87.5369 3.1216C86.7231 3.1216 86.0416 3.3016 85.4954 3.6616C84.9477 4.0216 84.6739 4.4893 84.6739 5.06776C84.6739 5.63237 84.9923 6.06622 85.6323 6.3693C86.2708 6.67238 87.3277 6.99392 88.8016 7.33084C91.96 8.07853 93.5385 9.55084 93.5385 11.7508C93.5385 13.0908 93.0185 14.137 91.98 14.8924C90.9416 15.6462 89.6646 16.0093 88.1493 15.9801Z" fill="url(#paint6_linear_0_367)"/>
<defs>
<linearGradient id="paint0_linear_0_367" x1="6.03122" y1="24.8814" x2="6.03122" y2="-9.8178" gradientUnits="userSpaceOnUse">
<stop stop-color="#36C59E"/>
<stop offset="0.1039" stop-color="#35BEA1"/>
<stop offset="0.2588" stop-color="#32A9AA"/>
<stop offset="0.4457" stop-color="#2C88B8"/>
<stop offset="0.6576" stop-color="#255ACC"/>
<stop offset="0.8873" stop-color="#1C1FE5"/>
<stop offset="1" stop-color="#1700F2"/>
</linearGradient>
<linearGradient id="paint1_linear_0_367" x1="20.3111" y1="24.8814" x2="20.3111" y2="-9.81787" gradientUnits="userSpaceOnUse">
<stop stop-color="#36C59E"/>
<stop offset="0.1039" stop-color="#35BEA1"/>
<stop offset="0.2588" stop-color="#32A9AA"/>
<stop offset="0.4457" stop-color="#2C88B8"/>
<stop offset="0.6576" stop-color="#255ACC"/>
<stop offset="0.8873" stop-color="#1C1FE5"/>
<stop offset="1" stop-color="#1700F2"/>
</linearGradient>
<linearGradient id="paint2_linear_0_367" x1="45.393" y1="24.8814" x2="45.393" y2="-9.81787" gradientUnits="userSpaceOnUse">
<stop stop-color="#36C59E"/>
<stop offset="0.1039" stop-color="#35BEA1"/>
<stop offset="0.2588" stop-color="#32A9AA"/>
<stop offset="0.4457" stop-color="#2C88B8"/>
<stop offset="0.6576" stop-color="#255ACC"/>
<stop offset="0.8873" stop-color="#1C1FE5"/>
<stop offset="1" stop-color="#1700F2"/>
</linearGradient>
<linearGradient id="paint3_linear_0_367" x1="56.1666" y1="24.8813" x2="56.1666" y2="-9.81795" gradientUnits="userSpaceOnUse">
<stop stop-color="#36C59E"/>
<stop offset="0.1039" stop-color="#35BEA1"/>
<stop offset="0.2588" stop-color="#32A9AA"/>
<stop offset="0.4457" stop-color="#2C88B8"/>
<stop offset="0.6576" stop-color="#255ACC"/>
<stop offset="0.8873" stop-color="#1C1FE5"/>
<stop offset="1" stop-color="#1700F2"/>
</linearGradient>
<linearGradient id="paint4_linear_0_367" x1="72.8878" y1="24.8813" x2="72.8878" y2="-9.81795" gradientUnits="userSpaceOnUse">
<stop stop-color="#36C59E"/>
<stop offset="0.1039" stop-color="#35BEA1"/>
<stop offset="0.2588" stop-color="#32A9AA"/>
<stop offset="0.4457" stop-color="#2C88B8"/>
<stop offset="0.6576" stop-color="#255ACC"/>
<stop offset="0.8873" stop-color="#1C1FE5"/>
<stop offset="1" stop-color="#1700F2"/>
</linearGradient>
<linearGradient id="paint5_linear_0_367" x1="35.6146" y1="24.8811" x2="35.6146" y2="-9.8181" gradientUnits="userSpaceOnUse">
<stop stop-color="#36C59E"/>
<stop offset="0.1039" stop-color="#35BEA1"/>
<stop offset="0.2588" stop-color="#32A9AA"/>
<stop offset="0.4457" stop-color="#2C88B8"/>
<stop offset="0.6576" stop-color="#255ACC"/>
<stop offset="0.8873" stop-color="#1C1FE5"/>
<stop offset="1" stop-color="#1700F2"/>
</linearGradient>
<linearGradient id="paint6_linear_0_367" x1="87.8645" y1="24.8812" x2="87.8645" y2="-9.81803" gradientUnits="userSpaceOnUse">
<stop stop-color="#36C59E"/>
<stop offset="0.1039" stop-color="#35BEA1"/>
<stop offset="0.2588" stop-color="#32A9AA"/>
<stop offset="0.4457" stop-color="#2C88B8"/>
<stop offset="0.6576" stop-color="#255ACC"/>
<stop offset="0.8873" stop-color="#1C1FE5"/>
<stop offset="1" stop-color="#1700F2"/>
</linearGradient>
</defs>
</svg>
