<svg width="53" height="23" viewBox="0 0 53 23" fill="none" xmlns="http://www.w3.org/2000/svg">
<path d="M51.7508 16.1784C50.6939 16.883 49.2677 16.6261 48.5231 15.5969L42.44 7.18305C41.4215 5.77382 39.7877 4.93843 38.0492 4.93843C35.8292 4.93843 33.7446 6.00305 32.4446 7.80305L25.3831 17.5707L24.9539 18.1646C22.9862 20.8877 19.8323 22.5 16.4739 22.5H16.0831H15.9231C12.6015 22.5 9.2677 21.2184 7.32154 18.5261L1.13385 9.55382C0.426159 8.57536 0.709239 7.21689 1.60308 6.40766C2.98924 5.22151 4.64 5.9369 5.46462 7.07843L11.0354 14.9769C12.2139 16.6061 14.1015 17.5707 16.1123 17.5707H16.8631C18.8569 17.263 19.7815 16.6461 20.8723 15.4938L28.3308 4.93997L28.4 4.84151C30.54 1.81228 34.0185 0.0107422 37.7277 0.0107422C41.0985 0.0107422 44.2646 1.6292 46.2385 4.35997L52.3585 12.8261C53.1415 13.9138 52.8662 15.4354 51.7508 16.1784Z" fill="url(#paint0_linear_410_6438)"/>
<defs>
<linearGradient id="paint0_linear_410_6438" x1="0.733298" y1="11.2553" x2="52.8039" y2="11.2553" gradientUnits="userSpaceOnUse">
<stop stop-color="#36C59E"/>
<stop offset="0.1039" stop-color="#35BEA1"/>
<stop offset="0.2588" stop-color="#32A9AA"/>
<stop offset="0.4457" stop-color="#2C88B8"/>
<stop offset="0.6576" stop-color="#255ACC"/>
<stop offset="0.8873" stop-color="#1C1FE5"/>
<stop offset="1" stop-color="#1700F2"/>
</linearGradient>
</defs>
</svg>
