<svg width="281" height="46" viewBox="0 0 281 46" fill="none" xmlns="http://www.w3.org/2000/svg">
<path d="M22.8462 45.8941C16.5877 45.8941 11.2154 43.6971 6.72923 39.3033C2.24308 34.9141 0 29.5879 0 23.3248C0 17.0664 2.24308 11.7218 6.72923 7.291C11.2154 2.86023 16.5877 0.644836 22.8462 0.644836H36.1939C36.1939 3.13253 35.3169 5.25562 33.5631 7.00485C31.8092 8.7587 29.6908 9.63562 27.1985 9.63562H22.8415C19.1077 9.63562 15.9323 10.9833 13.3108 13.6787C10.6892 16.3741 9.37846 19.5864 9.37846 23.3202C9.37846 27.0541 10.6892 30.2479 13.3108 32.9064C15.9323 35.5648 19.1077 36.8941 22.8415 36.8941H27.1985C29.6862 36.8941 31.8092 37.771 33.5631 39.5248C35.3169 41.2787 36.1939 43.3972 36.1939 45.8895H22.8462V45.8941Z" fill="url(#paint0_linear_410_15242)"/>
<path d="M60.9046 0.649475C67.1631 0.649475 72.5446 2.86487 77.0492 7.29564C81.5538 11.7264 83.8061 17.071 83.8061 23.3295C83.8061 29.5879 81.5538 34.9141 77.0492 39.3079C72.5446 43.7018 67.1631 45.8987 60.9046 45.8987C54.6461 45.8987 49.2738 43.7018 44.7877 39.3079C40.3015 34.9187 38.0585 29.5926 38.0585 23.3295C38.0585 17.071 40.3015 11.7264 44.7877 7.29564C49.2738 2.86487 54.6461 0.649475 60.9046 0.649475ZM60.9046 9.64023C57.1708 9.64023 54.0138 10.9879 51.4338 13.6833C48.8492 16.3787 47.5615 19.591 47.5615 23.3249C47.5615 27.0587 48.8538 30.2526 51.4338 32.911C54.0185 35.5695 57.1754 36.8987 60.9046 36.8987C64.6385 36.8987 67.8046 35.5695 70.4077 32.911C73.0108 30.2526 74.3123 27.0587 74.3123 23.3249C74.3123 19.591 73.0108 16.3787 70.4077 13.6833C67.8046 10.9879 64.6385 9.64023 60.9046 9.64023Z" fill="url(#paint1_linear_410_15242)"/>
<path d="M140.931 45.8941C138.328 45.8941 136.094 44.9618 134.229 43.0926C132.365 41.2279 131.428 38.9941 131.428 36.391V0.649475C134.031 0.649475 136.265 1.58178 138.129 3.4464C139.994 5.31101 140.931 7.54487 140.931 10.1479V45.8941Z" fill="url(#paint2_linear_410_15242)"/>
<path d="M181.874 23.3294C181.874 19.6371 180.572 16.4294 177.969 13.7156C175.366 11.0017 172.218 9.64481 168.526 9.64481C164.792 9.64481 161.626 10.9925 159.023 13.6879C156.42 16.3833 155.118 19.5956 155.118 23.3294V36.3956C155.118 38.9987 154.186 41.2325 152.317 43.0971C150.452 44.9618 148.218 45.8987 145.615 45.8987V23.3341C145.615 17.0756 147.858 11.731 152.345 7.30022C156.831 2.86945 162.222 0.654053 168.517 0.654053C174.775 0.654053 180.148 2.86945 184.634 7.30022C189.12 11.731 191.363 17.0756 191.363 23.3341V45.8987C188.76 45.8987 186.526 44.9664 184.662 43.0971C182.797 41.2325 181.865 38.9987 181.865 36.3956V23.3294H181.874Z" fill="url(#paint3_linear_410_15242)"/>
<path d="M232.038 10.1525C232.038 7.54945 232.971 5.31559 234.835 3.45097C236.7 1.58636 238.934 0.654053 241.537 0.654053V23.2187C241.537 29.4771 239.294 34.8217 234.808 39.2525C230.322 43.6833 224.949 45.8987 218.691 45.8987C212.395 45.8987 207 43.6833 202.518 39.2525C198.032 34.8217 195.789 29.4771 195.789 23.2187V0.654053C198.392 0.654053 200.626 1.58636 202.491 3.45097C204.355 5.31559 205.292 7.54945 205.292 10.1525V23.2187C205.292 26.9525 206.594 30.1648 209.197 32.8602C211.8 35.5556 214.966 36.9033 218.7 36.9033C222.392 36.9033 225.545 35.5463 228.143 32.8325C230.746 30.1187 232.048 26.9156 232.048 23.2187V10.1525H232.038Z" fill="url(#paint4_linear_410_15242)"/>
<path d="M107.714 45.9402C103.537 45.8848 99.5077 44.9941 95.6262 43.2633C91.9569 41.6248 89.6446 37.9233 89.6446 33.9033V31.794C96.0554 36.4879 102.185 38.8371 108.037 38.8371C110.705 38.8371 112.8 38.3064 114.328 37.2494C115.855 36.1925 116.617 34.8587 116.617 33.2525C116.617 31.5171 115.615 30.0679 113.617 28.9048C111.618 27.7418 108.531 26.6756 104.354 25.7018C99.1892 24.4741 95.4138 22.8771 93.0277 20.911C90.6415 18.9448 89.4462 16.3971 89.4462 13.2633C89.4462 9.4556 91.0154 6.37714 94.1585 4.03253C97.2969 1.6833 101.192 0.510986 105.84 0.510986C109.158 0.510986 112.417 1.0233 115.611 2.0433C119.866 3.40484 122.686 7.46175 122.686 11.9294V13.074C120.365 11.4679 117.674 10.1156 114.618 9.01252C111.563 7.91406 108.637 7.36482 105.84 7.36482C103.343 7.36482 101.257 7.90483 99.5815 8.98483C97.9015 10.0648 97.0662 11.4679 97.0662 13.2033C97.0662 14.8971 98.0446 16.1987 100.002 17.1033C101.958 18.0125 105.198 18.9771 109.712 19.9925C119.391 22.2356 124.232 26.6525 124.232 33.2525C124.232 37.2725 122.64 40.411 119.455 42.6771C116.275 44.9387 112.362 46.0279 107.714 45.9402Z" fill="url(#paint5_linear_410_15242)"/>
<path d="M264.448 45.9402C260.765 45.8894 257.202 45.1602 253.754 43.7525C249.498 42.0125 246.762 37.8171 246.762 33.2202V31.7894C253.034 36.4833 259.034 38.8325 264.762 38.8325C267.374 38.8325 269.423 38.3064 270.918 37.2448C272.414 36.1879 273.162 34.854 273.162 33.2479C273.162 31.5125 272.183 30.0633 270.226 28.9002C268.269 27.7371 265.246 26.671 261.162 25.6971C256.108 24.4694 252.415 22.8725 250.075 20.9064C247.74 18.9402 246.572 16.3925 246.572 13.2587C246.572 9.45097 248.109 6.3725 251.183 4.02789C254.257 1.67866 258.069 0.506348 262.615 0.506348C265.735 0.506348 268.8 0.97712 271.805 1.92327C276.129 3.2802 279.097 7.25866 279.097 11.791V13.074C276.822 11.4679 274.191 10.1156 271.2 9.0125C268.209 7.91404 265.348 7.3648 262.611 7.3648C260.169 7.3648 258.125 7.90481 256.486 8.98481C254.843 10.0648 254.022 11.4679 254.022 13.2033C254.022 14.8971 254.977 16.1987 256.897 17.1079C258.812 18.0171 261.983 18.9817 266.405 19.9925C275.88 22.2356 280.615 26.6525 280.615 33.2525C280.615 37.2725 279.055 40.411 275.94 42.6771C272.825 44.9387 268.994 46.0279 264.448 45.9402Z" fill="url(#paint6_linear_410_15242)"/>
<defs>
<linearGradient id="paint0_linear_410_15242" x1="18.0936" y1="72.6437" x2="18.0936" y2="-31.4541" gradientUnits="userSpaceOnUse">
<stop stop-color="#36C59E"/>
<stop offset="0.1039" stop-color="#35BEA1"/>
<stop offset="0.2588" stop-color="#32A9AA"/>
<stop offset="0.4457" stop-color="#2C88B8"/>
<stop offset="0.6576" stop-color="#255ACC"/>
<stop offset="0.8873" stop-color="#1C1FE5"/>
<stop offset="1" stop-color="#1700F2"/>
</linearGradient>
<linearGradient id="paint1_linear_410_15242" x1="60.9334" y1="72.6437" x2="60.9334" y2="-31.454" gradientUnits="userSpaceOnUse">
<stop stop-color="#36C59E"/>
<stop offset="0.1039" stop-color="#35BEA1"/>
<stop offset="0.2588" stop-color="#32A9AA"/>
<stop offset="0.4457" stop-color="#2C88B8"/>
<stop offset="0.6576" stop-color="#255ACC"/>
<stop offset="0.8873" stop-color="#1C1FE5"/>
<stop offset="1" stop-color="#1700F2"/>
</linearGradient>
<linearGradient id="paint2_linear_410_15242" x1="136.179" y1="72.6437" x2="136.179" y2="-31.454" gradientUnits="userSpaceOnUse">
<stop stop-color="#36C59E"/>
<stop offset="0.1039" stop-color="#35BEA1"/>
<stop offset="0.2588" stop-color="#32A9AA"/>
<stop offset="0.4457" stop-color="#2C88B8"/>
<stop offset="0.6576" stop-color="#255ACC"/>
<stop offset="0.8873" stop-color="#1C1FE5"/>
<stop offset="1" stop-color="#1700F2"/>
</linearGradient>
<linearGradient id="paint3_linear_410_15242" x1="168.5" y1="72.6436" x2="168.5" y2="-31.4541" gradientUnits="userSpaceOnUse">
<stop stop-color="#36C59E"/>
<stop offset="0.1039" stop-color="#35BEA1"/>
<stop offset="0.2588" stop-color="#32A9AA"/>
<stop offset="0.4457" stop-color="#2C88B8"/>
<stop offset="0.6576" stop-color="#255ACC"/>
<stop offset="0.8873" stop-color="#1C1FE5"/>
<stop offset="1" stop-color="#1700F2"/>
</linearGradient>
<linearGradient id="paint4_linear_410_15242" x1="218.663" y1="72.6436" x2="218.663" y2="-31.4541" gradientUnits="userSpaceOnUse">
<stop stop-color="#36C59E"/>
<stop offset="0.1039" stop-color="#35BEA1"/>
<stop offset="0.2588" stop-color="#32A9AA"/>
<stop offset="0.4457" stop-color="#2C88B8"/>
<stop offset="0.6576" stop-color="#255ACC"/>
<stop offset="0.8873" stop-color="#1C1FE5"/>
<stop offset="1" stop-color="#1700F2"/>
</linearGradient>
<linearGradient id="paint5_linear_410_15242" x1="106.844" y1="72.6436" x2="106.844" y2="-31.4541" gradientUnits="userSpaceOnUse">
<stop stop-color="#36C59E"/>
<stop offset="0.1039" stop-color="#35BEA1"/>
<stop offset="0.2588" stop-color="#32A9AA"/>
<stop offset="0.4457" stop-color="#2C88B8"/>
<stop offset="0.6576" stop-color="#255ACC"/>
<stop offset="0.8873" stop-color="#1C1FE5"/>
<stop offset="1" stop-color="#1700F2"/>
</linearGradient>
<linearGradient id="paint6_linear_410_15242" x1="263.593" y1="72.6436" x2="263.593" y2="-31.4541" gradientUnits="userSpaceOnUse">
<stop stop-color="#36C59E"/>
<stop offset="0.1039" stop-color="#35BEA1"/>
<stop offset="0.2588" stop-color="#32A9AA"/>
<stop offset="0.4457" stop-color="#2C88B8"/>
<stop offset="0.6576" stop-color="#255ACC"/>
<stop offset="0.8873" stop-color="#1C1FE5"/>
<stop offset="1" stop-color="#1700F2"/>
</linearGradient>
</defs>
</svg>
