<svg width="220" height="100" viewBox="0 0 220 100" fill="none" xmlns="http://www.w3.org/2000/svg">
<rect width="220" height="100" fill="#0E0E37"/>
<g clip-path="url(#clip0_410_6566)">
<path fill-rule="evenodd" clip-rule="evenodd" d="M27.1819 50.7128C27.4289 49.8203 27.9086 48.8714 28.3566 48.0671C28.9599 46.9876 29.6584 45.9399 30.4133 44.9592C31.4928 43.5551 32.9885 41.9042 34.5619 41.0575L34.6924 40.987L34.837 41.0222C35.2921 41.1422 35.8142 41.6008 36.1599 41.9218L36.1705 41.9324L36.1811 41.943C37.1336 42.9554 37.9696 44.0631 38.7634 45.2026L39.1761 45.7987L37.1653 45.7882L37.0559 45.6224C36.4703 44.7404 35.7824 43.8021 34.9781 43.1071C34.9393 43.0859 34.8935 43.0577 34.8582 43.0436C34.8335 43.0401 34.8017 43.0436 34.7735 43.0436C34.5724 43.0683 34.1632 43.3681 34.0186 43.4846C33.5388 43.8585 33.0837 44.3136 32.6745 44.7651C31.5527 45.9998 30.5368 47.4603 29.7818 48.9454C29.3373 49.8203 28.9563 50.7516 28.72 51.7041C28.5048 52.5649 28.399 53.4785 28.5154 54.364C28.5471 54.491 28.6882 54.5968 28.8082 54.6674L41.6032 54.6568H41.6208C42.6191 54.745 43.2471 55.3376 43.4517 56.3078V56.3148V56.3219C43.6139 57.3343 43.6739 58.3538 43.681 59.3769V59.3839V59.3945C43.6739 59.585 43.6245 59.7684 43.5328 59.9342C43.2294 60.4775 42.5874 60.6539 42.0053 60.6363H27.2101C26.8962 60.6363 26.5787 60.4881 26.3459 60.2835C26.0601 60.0365 25.8837 59.6943 25.8414 59.3204L25.8379 59.2992L25.8484 56.8792L27.898 56.8898L27.8733 58.4455C27.891 58.7983 28.1591 58.8724 28.4731 58.8971L31.4892 58.9147H40.9541H40.9611C41.4444 58.9324 41.6631 58.7913 41.6737 58.2974L41.649 56.8299C41.6278 56.4912 41.4303 56.2795 41.0775 56.3042H41.0634L36.7702 56.3007H27.6864L27.6405 56.2866C26.8644 56.0785 26.5046 55.4893 26.5293 54.7062C26.5116 53.3445 26.7727 52.0075 27.1819 50.7128ZM69.0169 55.768C69.0169 52.8506 68.2267 49.8097 62.6812 47.3086C60.2647 46.2256 58.8042 45.1849 58.8042 43.1C58.8042 41.0575 60.0142 39.8087 62.2614 39.8087C64.0111 39.8087 65.5527 40.4331 66.5546 41.0575L67.9727 36.9336C66.5969 36.0164 64.3462 35.2686 61.263 35.2686C55.6787 35.2686 52.1792 39.269 52.1792 44.1019C52.1792 46.8923 53.428 50.0179 57.887 52.0181C60.8044 53.3092 61.8874 54.4346 61.8874 56.269C61.8874 58.3115 60.4305 59.6873 58.0528 59.6873C56.0526 59.6873 54.3452 58.9782 53.428 58.3538L51.8864 63.0633C53.5127 64.1463 55.8445 64.7707 59.3863 64.7707C65.0588 64.7672 69.0169 60.9361 69.0169 55.768ZM88.5322 63.1021V49.6827C88.5322 43.5975 84.7822 41.4738 79.6988 41.4738C75.7407 41.4738 72.8233 42.5145 71.2394 43.1812L72.6575 46.8888C74.1145 46.2221 76.3263 45.513 78.4923 45.513C80.8665 45.513 82.4504 46.1797 82.4504 48.5151V49.5557C75.6984 50.1801 69.9059 51.8876 69.9059 57.68C69.9059 62.3472 73.2396 64.7637 79.7411 64.7637C83.6145 64.7672 86.6554 64.1005 88.5322 63.1021ZM82.4469 60.728C81.8648 61.0208 81.0287 61.1866 80.0727 61.1866C77.4905 61.1866 75.9877 60.0612 75.9877 57.4366C75.9877 53.8525 78.5311 52.9353 82.4469 52.5613V60.728ZM121.382 64.7672V49.016C121.382 45.0579 118.631 41.89 113.297 41.89C109.589 41.89 107.296 42.9307 105.878 44.1407C104.587 42.8919 102.46 41.89 98.7519 41.89C94.8362 41.89 92.1692 42.4298 89.6681 43.5587V64.7707H96.1696V46.3949C96.9598 46.1021 97.6266 45.9787 98.7943 45.9787C101.045 45.9787 102.294 47.1463 102.294 48.9384V64.7742H108.795V47.0652C109.547 46.3138 110.503 45.9822 111.628 45.9822C113.879 45.9822 114.877 47.3157 114.877 49.0231V64.7742H121.382V64.7672ZM147.522 64.7672L138.23 36.0976H131.648L122.313 64.7672H128.356L130.191 58.6431H138.816L140.566 64.7672H147.522ZM137.895 54.7662H131.186L133.853 45.4319C134.435 43.3893 134.604 41.9747 134.604 41.9747H134.685C134.685 41.9747 134.809 43.4317 135.352 45.4319L137.895 54.7662ZM166.413 63.0175V41.89H159.912V59.8496C159.203 60.2235 158.37 60.3893 157.202 60.3893C154.994 60.3893 154.119 59.0558 154.119 57.4296V41.8865H147.618V56.971C147.618 62.3895 150.701 64.7637 157.037 64.7637C161.245 64.7672 164.328 64.0617 166.413 63.0175ZM180.094 64.0616V60.0612C179.55 60.227 179.261 60.3117 178.718 60.3117C177.261 60.3117 176.633 59.3945 176.633 57.6871V46.1021H180.09V41.8936H176.633V35.4308L170.131 37.0994V41.8936H167.673V46.1021H170.131V58.188C170.131 61.6452 172.174 64.6896 176.883 64.6896C178.383 64.6861 179.55 64.3086 180.094 64.0616ZM200.068 53.1011C200.068 46.3914 196.649 41.4738 190.109 41.4738C183.65 41.4738 180.231 46.3914 180.231 53.1011C180.231 59.8108 183.65 64.7707 190.148 64.7707C196.649 64.7672 200.068 59.8108 200.068 53.1011ZM193.608 53.0164C193.608 57.0592 193.026 60.3505 190.151 60.3505C187.318 60.3505 186.694 57.0592 186.694 53.0164C186.694 49.016 187.276 45.5165 190.151 45.5165C193.023 45.5165 193.608 49.016 193.608 53.0164ZM22.9028 61.1513C22.9451 50.7763 32.163 38.8562 34.7629 38.0413C36.8831 38.2071 47.1734 51.6265 46.6231 61.2254C46.5243 61.9697 46.0939 62.4036 45.3002 62.5024L24.3245 62.513C23.4531 62.4142 22.9381 61.9062 22.9028 61.1513ZM49.3535 62.6365C49.1595 63.7512 48.4363 64.4462 47.3286 64.6331L47.2827 64.6402L22.2361 64.7213L22.2043 64.7178C21.2271 64.619 20.3452 63.8253 20.123 62.8728L20.1124 62.8305L20.1089 62.7846C19.7808 58.4843 21.4565 53.6867 23.2909 49.8591C24.1834 47.9965 25.1993 46.1868 26.3 44.4406C27.2877 42.8743 28.3566 41.3468 29.5067 39.8934C30.3992 38.7645 33.0873 35.4732 34.6042 35.2862L34.6395 35.2827H34.6747C36.1423 35.2827 39.035 38.7892 39.8781 39.8334C41.0811 41.3221 42.1993 42.8954 43.2294 44.5111C44.383 46.3173 45.4378 48.1976 46.355 50.1343C48.1259 53.8772 49.6287 58.3891 49.357 62.5765L49.3535 62.6082V62.6365Z" fill="#CD2628"/>
</g>
<defs>
<clipPath id="clip0_410_6566">
<rect width="180" height="30.24" fill="white" transform="translate(20 34.8799)"/>
</clipPath>
</defs>
</svg>
