<svg width="220" height="100" viewBox="0 0 220 100" fill="none" xmlns="http://www.w3.org/2000/svg">
<rect width="220" height="100" fill="#0E0E37"/>
<path d="M20 37.5542V62.4473H53.9741V59.5048H25.4713V55.7686C27.7676 56.6805 30.5581 57.1512 33.4036 57.1512H43.8519V48.5304H33.2938V51.4729H38.3806V54.2382H33.4036C29.0273 54.2678 25.4713 52.3849 25.4713 50.0312C25.4164 47.6776 28.9174 45.7651 33.2938 45.7651H33.4036H38.3291V42.8226H33.4036C30.5581 42.8226 27.7676 43.3229 25.4713 44.2053V40.469H61.0346V48.5304H53.9776V42.8226H43.4194V45.7651H48.5063V57.1826H53.9776V51.4711H60.9797V62.4455H66.451V37.5542H20Z" fill="#FBBA00"/>
<path d="M89.5378 39.5259H96.5399V37.5544H89.2083C83.3011 37.5544 79.7966 39.585 79.7966 42.2912C79.7966 44.9974 83.2976 47.028 89.2083 47.028H96.5399V41.4088H88.8273V43.2031H92.2734V45.0565H89.5378C86.4726 45.0565 84.2313 44.115 84.2313 42.2912C84.2313 40.4674 86.4761 39.5259 89.5378 39.5259ZM200 47.028H199.015L187.581 41.7909V47.028H183.315V37.5526H184.3L195.733 42.5847V37.5821H200V47.028ZM176.694 43.2031H168.926V45.0565H178.664V47.028H164.605V37.5526H178.664V39.5241H168.871V41.3774H176.639V43.2013H176.694V43.2031ZM147.916 39.5259V45.0583H150.652C153.717 45.0583 155.959 44.1169 155.959 42.2931C155.959 40.4692 153.769 39.5278 150.652 39.5278H147.916V39.5259ZM150.978 47.028H143.646V37.5526H150.978C156.885 37.5526 160.39 39.5831 160.39 42.2894C160.39 44.9974 156.889 47.028 150.978 47.028ZM124.061 47.028V37.5526H128.328V45.0565H137.901V47.028H124.061ZM115.308 42.2912C115.363 40.7904 113.119 39.5555 110.331 39.5555C107.541 39.5259 105.245 40.7332 105.245 42.2321V42.2912C105.19 43.792 107.434 45.027 110.225 45.027C113.016 45.0565 115.312 43.8492 115.312 42.3484V42.2912H115.308ZM100.755 42.2912C100.755 39.585 104.311 37.3477 110.222 37.3477C116.129 37.3477 119.74 39.5831 119.74 42.2912C119.74 44.9974 116.184 47.2348 110.222 47.2348C104.311 47.2348 100.755 45.027 100.755 42.2912ZM176.694 58.5913H168.926V60.4446H178.664V62.4162H164.605V52.9426H178.664V54.9141H168.871V56.7674H176.639L176.694 58.5913ZM147.532 59.6213C147.532 59.6213 150.103 60.5333 152.674 60.5333C154.314 60.5333 154.864 60.1807 154.864 59.7395C154.864 59.2392 154.263 59.0048 151.582 58.5913C147.697 58.0024 145.455 57.2382 145.455 55.6783C145.455 53.9431 147.752 52.7358 152.567 52.7358C157.544 52.7358 159.46 53.7363 159.46 53.7363L157.163 55.5897C155.797 55.0894 154.208 54.7959 152.567 54.7959C150.872 54.7959 150.377 55.0894 150.377 55.5029C150.377 55.9737 151.198 56.1804 153.443 56.4739C157.599 57.0628 159.899 57.8861 159.899 59.4755C159.899 61.2107 157.654 62.6229 152.787 62.6229C147.755 62.6229 145.181 61.3584 145.181 61.3584L147.532 59.6213ZM124.061 58.3568V52.9426H128.328V58.3273C128.328 59.4164 129.587 60.417 132.213 60.417C134.894 60.417 136.044 59.446 136.044 58.3273V52.9426H140.31V58.3273C140.31 60.7695 137.245 62.6229 132.213 62.6229C127.236 62.6524 124.061 60.7991 124.061 58.3568ZM115.308 57.7089C115.363 56.2081 113.119 54.9731 110.331 54.9731C107.541 54.9436 105.245 56.1509 105.245 57.6498V57.7089C105.19 59.2097 107.434 60.4446 110.225 60.4446C113.016 60.4742 115.312 59.2669 115.312 57.7661V57.7089H115.308ZM100.755 57.7089C100.755 55.0027 104.311 52.7653 110.222 52.7653C116.129 52.7653 119.74 55.0008 119.74 57.7089C119.74 60.4151 116.129 62.6524 110.222 62.6524C104.311 62.6524 100.755 60.417 100.755 57.7089ZM96.5434 62.4475H92.2769V58.7408H84.4509V62.4475H80.1844V52.9444H84.4509V56.917H92.2734V52.9444H96.5399V62.4475H96.5434Z" fill="#FBBA00"/>
</svg>
