<svg width="220" height="100" viewBox="0 0 220 100" fill="none" xmlns="http://www.w3.org/2000/svg">
<rect width="220" height="100" fill="#0E0E37"/>
<g clip-path="url(#clip0_410_6558)">
<path d="M53.4673 39.7178C50.5084 39.7178 48.1025 37.3119 48.1025 34.346C48.1025 31.38 50.5084 28.9777 53.4673 28.9777C56.4368 28.9777 58.8391 31.3836 58.8391 34.346C58.8427 37.3155 56.4368 39.7178 53.4673 39.7178ZM81.355 40.3941L66.4971 25.7898C62.8935 22.2497 58.191 20.3476 53.4673 20.3018C48.7542 20.3511 44.0481 22.2497 40.4481 25.7898L25.5797 40.3941C18.2881 47.5624 18.2881 59.1797 25.5797 66.3444L27.4712 68.1902C30.8035 71.4767 48.2082 78.9726 49.7687 79.6031V51.2434C49.7687 50.3769 49.1593 49.5949 48.335 49.2744L39.0638 45.6532C38.2924 46.3014 37.3026 46.6924 36.2071 46.6924C33.7589 46.6924 31.7617 44.6986 31.7617 42.2399C31.7617 39.7812 33.7589 37.791 36.2071 37.791C38.4896 37.791 40.346 39.4924 40.6243 41.6939L49.6524 45.22C50.8748 45.699 52.171 45.9456 53.4638 45.9632C54.7742 45.9456 56.0669 45.699 57.2928 45.22L66.3104 41.6939C66.5781 39.4924 68.4556 37.791 70.7276 37.791C73.1828 37.791 75.18 39.7812 75.18 42.2399C75.18 44.6986 73.1828 46.6924 70.7276 46.6924C69.6427 46.6924 68.6352 46.2978 67.8708 45.6532L58.5996 49.2744C57.7824 49.5949 57.1765 50.3769 57.1765 51.2434V79.6031C58.7299 78.9726 76.1241 71.4767 79.474 68.1902L81.3479 66.3444C88.6466 59.1761 88.6466 47.5589 81.355 40.3941Z" fill="#7EBA34"/>
<path d="M105.544 51.1376H108.633V31.8131H105.544V51.1376ZM191.465 40.873L199.841 51.1411H196.171L188.629 41.8241V40.0452L196.034 31.8166H199.584L191.465 40.873ZM187.544 51.1376H184.445V31.8131H187.544V51.1376ZM178.023 37.7168C178.023 36.7622 177.727 35.9978 177.139 35.4272C176.54 34.853 175.656 34.5677 174.465 34.5677H170.481V40.9892H174.381C175.536 40.9892 176.42 40.6933 177.061 40.1016C177.71 39.5098 178.023 38.7137 178.023 37.7168ZM181.119 37.7168C181.119 39.0554 180.735 40.2143 179.975 41.2041C179.21 42.1869 178.185 42.8808 176.903 43.2824L181.468 51.1376H178.136L173.838 43.7403H170.478V51.1376H167.378V31.8131H174.462C175.512 31.8131 176.459 31.9646 177.29 32.271C178.115 32.5775 178.819 33.0002 179.383 33.5321C179.946 34.071 180.373 34.6945 180.668 35.4131C180.971 36.1282 181.119 36.8996 181.119 37.7168ZM157.607 39.6119L156.286 35.0256H156.233L154.915 39.6119L153.485 43.7121H159.04L157.607 39.6119ZM164.891 51.1376H161.679L159.984 46.3787H152.503L150.836 51.1376H147.634L154.683 31.8131H157.843L164.891 51.1376ZM144.831 37.9493C144.831 36.9172 144.517 36.0929 143.936 35.48C143.348 34.8706 142.477 34.5642 141.35 34.5642H137.8V41.4472H141.185C142.323 41.4472 143.217 41.1372 143.865 40.5137C144.499 39.8937 144.831 39.0378 144.831 37.9493ZM147.92 37.9493C147.92 38.8264 147.754 39.6436 147.444 40.401C147.131 41.1583 146.68 41.8135 146.092 42.3771C145.517 42.9442 144.806 43.3881 143.975 43.7086C143.15 44.0327 142.22 44.1947 141.188 44.1947H137.803V51.134H134.696V31.8096H141.354C142.386 31.8096 143.305 31.9681 144.122 32.2851C144.94 32.5986 145.623 33.0354 146.18 33.592C146.754 34.145 147.187 34.7931 147.483 35.5399C147.772 36.2832 147.92 37.0898 147.92 37.9493ZM119.789 51.1376H116.7V34.536L111.025 34.5642V31.8096H125.503V34.5642L119.793 34.536V51.1376H119.789Z" fill="white"/>
<path d="M107.503 61.5009C106.636 61.5009 106.083 61.7017 106.083 62.459C106.083 62.9487 106.354 63.2305 107.319 63.2974C108.485 63.389 109.003 63.8081 109.003 64.7099C109.003 65.7455 108.214 66.1365 107.023 66.1365C106.59 66.1365 106.016 66.059 105.643 65.9393L105.784 65.4919C106.079 65.6046 106.632 65.6751 107.016 65.6751C107.876 65.6751 108.471 65.4708 108.471 64.717C108.471 64.2344 108.204 63.8434 107.238 63.7729C106.072 63.6884 105.544 63.3678 105.544 62.4731C105.544 61.4304 106.305 61.0465 107.496 61.0465C107.922 61.0465 108.457 61.124 108.838 61.2332L108.697 61.6876C108.475 61.5784 107.901 61.5009 107.503 61.5009ZM197.33 61.1627V65.5976H199.845V66.0379H196.823V61.1627H197.33ZM193.3 61.5537C192.948 62.4203 192.613 63.2657 192.307 64.1146H194.378C194.075 63.2903 193.776 62.4097 193.501 61.5537H193.3ZM194.53 64.5338H192.152C191.976 65.0305 191.81 65.5271 191.648 66.0379H191.151C191.708 64.407 192.31 62.7937 192.994 61.1627H193.853C194.406 62.8042 195.093 64.6888 195.688 66.0379H195.121C194.928 65.5694 194.723 65.0657 194.53 64.5338ZM189.661 64.6535C189.661 64.0688 189.45 63.632 188.95 63.632H187.065V65.6187H188.975C189.496 65.6187 189.661 65.2207 189.661 64.6535ZM189.556 62.378C189.556 61.8884 189.418 61.5819 188.908 61.5819H187.069V63.2199H188.908C189.411 63.2199 189.556 62.8148 189.556 62.378ZM190.204 64.6606C190.204 65.5694 189.771 66.0379 188.989 66.0379H186.569V61.1627H188.908C189.883 61.1627 190.07 61.7087 190.07 62.3181C190.07 62.8993 189.971 63.3397 189.105 63.4172C190.028 63.4559 190.204 63.9948 190.204 64.6606ZM181.151 63.5898C181.151 65.2876 181.577 65.6927 182.817 65.6927C184.068 65.6927 184.501 65.2876 184.501 63.5898C184.501 61.8003 184.071 61.4692 182.817 61.4692C181.577 61.4692 181.151 61.8003 181.151 63.5898ZM180.609 63.5757C180.609 61.589 181.306 61.043 182.821 61.043C184.332 61.043 185.036 61.589 185.036 63.5757C185.036 65.5905 184.346 66.1365 182.821 66.1365C181.299 66.1365 180.609 65.5905 180.609 63.5757ZM177.174 61.1627V65.5976H179.693V66.0379H176.67V61.1627H177.174ZM174.504 63.8258H173.229V63.4207H175.011V65.9745C174.631 66.0942 173.955 66.1365 173.518 66.1365C172.01 66.1365 171.288 65.5412 171.288 63.5545C171.288 61.5608 172.007 61.0465 173.518 61.0465C173.955 61.0465 174.508 61.124 174.881 61.2332L174.722 61.6735C174.427 61.5608 173.905 61.4939 173.528 61.4939C172.295 61.4939 171.838 61.7651 171.838 63.5545C171.838 65.3369 172.295 65.6892 173.528 65.6892C173.905 65.6892 174.296 65.6258 174.508 65.5694V63.8258H174.504ZM163.753 63.5898C163.753 65.2876 164.18 65.6927 165.42 65.6927C166.67 65.6927 167.107 65.2876 167.107 63.5898C167.107 61.8003 166.674 61.4692 165.42 61.4692C164.18 61.4692 163.753 61.8003 163.753 63.5898ZM163.207 63.5757C163.207 61.589 163.908 61.043 165.42 61.043C166.938 61.043 167.639 61.589 167.639 63.5757C167.639 65.5905 166.948 66.1365 165.42 66.1365C163.901 66.1365 163.207 65.5905 163.207 63.5757ZM161.305 63.8258H160.034V63.4207H161.816V65.9745C161.436 66.0942 160.759 66.1365 160.322 66.1365C158.811 66.1365 158.086 65.5412 158.086 63.5545C158.086 61.5608 158.808 61.0465 160.322 61.0465C160.756 61.0465 161.305 61.124 161.682 61.2332L161.524 61.6735C161.231 61.5608 160.703 61.4939 160.33 61.4939C159.097 61.4939 158.632 61.7651 158.632 63.5545C158.632 65.3369 159.093 65.6892 160.33 65.6892C160.703 65.6892 161.097 65.6258 161.305 65.5694V63.8258ZM151.365 61.1627V65.5976H153.887V66.0379H150.861V61.1627H151.365ZM147.339 61.5537C146.986 62.4203 146.652 63.2657 146.345 64.1146H148.416C148.117 63.2903 147.814 62.4097 147.543 61.5537H147.339ZM148.571 64.5338H146.194C146.018 65.0305 145.852 65.5271 145.69 66.0379H145.193C145.753 64.407 146.352 62.7937 147.032 61.1627H147.892C148.441 62.8042 149.135 64.6888 149.723 66.0379H149.156C148.969 65.5694 148.769 65.0657 148.571 64.5338ZM143.178 61.0465C143.612 61.0465 144.165 61.124 144.542 61.2332L144.38 61.6876C144.087 61.5678 143.562 61.5009 143.186 61.5009C141.956 61.5009 141.495 61.7651 141.495 63.5545C141.495 65.3369 141.956 65.6751 143.186 65.6751C143.562 65.6751 144.087 65.6046 144.38 65.4919L144.542 65.9393C144.165 66.059 143.612 66.1365 143.178 66.1365C141.671 66.1365 140.945 65.5412 140.945 63.5545C140.945 61.5608 141.671 61.0465 143.178 61.0465ZM135.799 63.5898C135.799 65.2876 136.225 65.6927 137.465 65.6927C138.715 65.6927 139.145 65.2876 139.145 63.5898C139.145 61.8003 138.715 61.4692 137.465 61.4692C136.225 61.4692 135.799 61.8003 135.799 63.5898ZM135.256 63.5757C135.256 61.589 135.954 61.043 137.468 61.043C138.983 61.043 139.688 61.589 139.688 63.5757C139.688 65.5905 138.994 66.1365 137.468 66.1365C135.947 66.1365 135.256 65.5905 135.256 63.5757ZM131.825 61.1627V65.5976H134.34V66.0379H131.318V61.1627H131.825ZM126.119 66.0379H125.605V61.5819H123.914V61.1627H127.803V61.5819H126.123V66.0379H126.119ZM119.976 61.5819V63.4841H121.61C122.181 63.4841 122.47 63.1283 122.47 62.5682C122.47 61.9306 122.177 61.5819 121.645 61.5819H119.976ZM121.649 61.1627C122.734 61.1627 123.03 61.825 123.03 62.5753C123.03 63.2586 122.695 63.861 121.628 63.861C121.977 63.9807 122.593 64.805 123.336 66.0344H122.709C121.931 64.6712 121.29 63.9209 120.92 63.9209H119.979V66.0344H119.476V61.1592H121.649V61.1627ZM115.95 61.5537C115.597 62.4203 115.266 63.2657 114.956 64.1146H117.027C116.724 63.2903 116.425 62.4097 116.154 61.5537H115.95ZM117.179 64.5338H114.801C114.629 65.0305 114.459 65.5271 114.301 66.0379H113.801C114.361 64.407 114.963 62.7937 115.643 61.1627H116.503C117.056 62.8042 117.746 64.6888 118.334 66.0379H117.771C117.577 65.5694 117.376 65.0657 117.179 64.5338ZM112.085 66.0379H111.575V61.5819H109.884V61.1627H113.773V61.5819H112.085V66.0379Z" fill="white"/>
</g>
<defs>
<clipPath id="clip0_410_6558">
<rect width="180" height="59.5303" fill="white" transform="translate(20 20.2349)"/>
</clipPath>
</defs>
</svg>
